<?xml version="1.0" encoding="utf-8"?>
<!-- Generator: Adobe Illustrator 25.1.0, SVG Export Plug-In . SVG Version: 6.00 Build 0)  -->
<svg version="1.1" id="Layer_1" xmlns="http://www.w3.org/2000/svg" xmlns:xlink="http://www.w3.org/1999/xlink" x="0px" y="0px"
	 viewBox="0 0 142.759 87.878" style="enable-background:new 0 0 142.759 87.878;" xml:space="preserve">
<style type="text/css">
	.st0{fill:#335EEA;}
	.st1{fill:url(#SVGID_1_);}
	.st2{fill:url(#SVGID_2_);}
	.st3{fill:url(#SVGID_3_);}
	.st4{fill:url(#SVGID_4_);}
	.st5{opacity:0.4;fill:url(#SVGID_5_);enable-background:new    ;}
	.st6{fill:url(#SVGID_6_);}
</style>
<g>
	<path class="st0" d="M30.924,39.443c0,0-0.593-0.477-0.707-0.572c-2.176-1.718-4.039-3.793-5.538-6.169
		c-0.351-0.537-0.662-1.059-0.94-1.581c-0.119-0.223-0.209-0.455-0.32-0.68c-0.838,2.313-1.875,4.663-3.118,7.001
		c-3.429,6.449-7.79,11.691-12.25,15.031l-0.015,0.012c-0.173,0.143-0.35,0.282-0.52,0.428c-1.727,1.351-3.241,3.013-4.467,4.956
		c-0.268,0.412-0.524,0.829-0.753,1.259c-2.537,4.771-2.901,10.118-1.439,14.906c0.731,2.394,1.919,4.648,3.519,6.621
		c1.601,1.973,3.615,3.664,5.999,4.931c2.384,1.268,4.912,1.992,7.443,2.216c2.531,0.224,5.063-0.052,7.457-0.785
		c4.787-1.465,9.016-4.757,11.553-9.528c0.229-0.43,0.431-0.876,0.623-1.328c0.925-2.102,1.456-4.287,1.611-6.474
		c0.026-0.222,0.042-0.447,0.064-0.67l0.001-0.019c0.215-4.336,1.432-9.268,3.576-14.285c-0.306-0.637-0.622-1.274-0.959-1.908
		C38.747,47.17,34.904,42.424,30.924,39.443z"/>
	
		<linearGradient id="SVGID_1_" gradientUnits="userSpaceOnUse" x1="56.8343" y1="53.414" x2="105.8549" y2="63.6742" gradientTransform="matrix(1 0 0 -1 0 90.0035)">
		<stop  offset="0" style="stop-color:#335EEA"/>
		<stop  offset="1" style="stop-color:#2949C0"/>
	</linearGradient>
	<path class="st1" d="M108.809,35.405l0.015-0.012c0.173-0.143,0.35-0.282,0.52-0.428c1.727-1.351,3.241-3.013,4.467-4.956
		c0.268-0.412,0.524-0.829,0.753-1.259c2.537-4.771,2.901-10.118,1.439-14.906c-0.731-2.394-1.919-4.648-3.519-6.621
		c-1.601-1.973-3.615-3.664-5.999-4.931c-2.384-1.267-4.912-1.992-7.443-2.216s-5.063,0.052-7.457,0.785
		c-4.787,1.465-9.016,4.757-11.553,9.528c-0.229,0.43-0.431,0.876-0.623,1.328c-0.925,2.102-1.456,4.287-1.611,6.474
		c-0.026,0.222-0.042,0.447-0.064,0.67l-0.001,0.019c-0.215,4.344-1.437,9.287-3.589,14.314c0.302,0.628,0.613,1.255,0.944,1.878
		c2.996,5.635,6.839,10.38,10.819,13.361c0,0,0.596,0.479,0.703,0.57c2.177,1.718,4.041,3.794,5.541,6.171
		c0.353,0.542,0.665,1.064,0.94,1.581c0.124,0.234,0.22,0.477,0.336,0.714c0.84-2.323,1.882-4.685,3.131-7.034
		C99.989,43.987,104.35,38.745,108.809,35.405z"/>
	<path class="st0" d="M87.886,57.868c-1.225-1.942-2.74-3.605-4.467-4.956c-0.169-0.146-0.347-0.285-0.52-0.428l-0.015-0.012
		c-4.46-3.34-8.821-8.582-12.25-15.031s-5.336-12.996-5.611-18.561l-0.001-0.019c-0.022-0.223-0.038-0.448-0.064-0.67
		c-0.154-2.187-0.686-4.372-1.611-6.474c-0.191-0.452-0.394-0.898-0.623-1.328c-2.537-4.771-6.766-8.063-11.553-9.528
		c-2.393-0.733-4.926-1.009-7.457-0.785c-2.531,0.224-5.059,0.948-7.443,2.216c-2.384,1.268-4.398,2.959-5.999,4.931
		c-1.601,1.973-2.788,4.227-3.519,6.621c-1.462,4.788-1.098,10.135,1.439,14.906c0.229,0.43,0.485,0.847,0.753,1.259
		c1.225,1.942,2.74,3.605,4.467,4.956c0.169,0.146,0.347,0.285,0.519,0.428l0.015,0.012c4.46,3.34,8.821,8.582,12.25,15.031
		c3.429,6.449,5.336,12.996,5.611,18.561l0.001,0.019c0.022,0.223,0.038,0.448,0.064,0.67c0.154,2.187,0.686,4.372,1.611,6.474
		c0.191,0.452,0.394,0.898,0.623,1.328c2.537,4.771,6.766,8.063,11.553,9.528c2.393,0.733,4.926,1.009,7.457,0.785
		s5.059-0.948,7.443-2.216c2.384-1.267,4.398-2.959,5.999-4.931c1.601-1.973,2.788-4.227,3.519-6.621
		c1.462-4.788,1.098-10.135-1.439-14.906C88.411,58.697,88.154,58.28,87.886,57.868z"/>
	
		<linearGradient id="SVGID_2_" gradientUnits="userSpaceOnUse" x1="107.489" y1="48.4512" x2="130.5743" y2="9.1207" gradientTransform="matrix(1 0 0 -1 0 90.0035)">
		<stop  offset="0" style="stop-color:#2949C0"/>
		<stop  offset="1" style="stop-color:#1F3497"/>
	</linearGradient>
	<path class="st2" d="M101.015,52.804c-0.337,0.634-0.653,1.27-0.959,1.908c2.143,5.017,3.361,9.949,3.576,14.285l0.001,0.019
		c0.022,0.223,0.038,0.448,0.064,0.67c0.154,2.187,0.686,4.372,1.611,6.474c0.191,0.452,0.394,0.898,0.623,1.328
		c2.537,4.771,6.766,8.063,11.553,9.528c2.393,0.733,4.926,1.009,7.457,0.785s5.059-0.948,7.443-2.216
		c2.384-1.267,4.398-2.959,5.999-4.931c1.601-1.973,2.788-4.227,3.519-6.621c1.462-4.788,1.098-10.135-1.439-14.906
		c-0.229-0.43-0.485-0.847-0.753-1.259c-1.225-1.942-2.74-3.605-4.467-4.956c-0.169-0.146-0.347-0.285-0.52-0.428l-0.015-0.012
		c-4.46-3.34-8.821-8.582-12.25-15.031c-1.243-2.338-2.28-4.689-3.118-7.001c-0.111,0.225-0.202,0.458-0.32,0.68
		c-0.278,0.521-0.589,1.043-0.94,1.581c-1.499,2.376-3.362,4.45-5.538,6.169c-0.114,0.095-0.707,0.572-0.707,0.572
		C107.853,42.424,104.011,47.17,101.015,52.804z"/>
	
		<linearGradient id="SVGID_3_" gradientUnits="userSpaceOnUse" x1="114.4394" y1="94.2746" x2="126.6756" y2="17.4318" gradientTransform="matrix(1 0 0 -1 0 90.0035)">
		<stop  offset="0" style="stop-color:#FFFFFF"/>
		<stop  offset="1" style="stop-color:#FFFFFF;stop-opacity:0"/>
	</linearGradient>
	<path class="st3" d="M119.018,31.122c-0.277,0.521-0.589,1.043-0.94,1.581c-1.499,2.376-3.362,4.45-5.538,6.169
		c-0.114,0.095-0.707,0.572-0.707,0.572c-2.221,1.663-4.392,3.89-6.403,6.499c15.862,11.04,25.923,24.491,27.822,39.122
		c1.999-1.199,3.73-2.688,5.128-4.41c1.601-1.973,2.788-4.227,3.519-6.621c1.462-4.788,1.098-10.135-1.439-14.906
		c-0.229-0.43-0.485-0.847-0.753-1.259c-1.225-1.942-2.74-3.605-4.467-4.956c-0.169-0.146-0.347-0.285-0.52-0.428l-0.016-0.012
		c-4.46-3.34-8.821-8.582-12.25-15.031c-1.243-2.338-2.28-4.689-3.118-7.001C119.227,30.667,119.137,30.899,119.018,31.122z"/>
	
		<linearGradient id="SVGID_4_" gradientUnits="userSpaceOnUse" x1="4279.6387" y1="94.2747" x2="4291.8745" y2="17.4318" gradientTransform="matrix(-1 0 0 -1 4307.9565 90.0035)">
		<stop  offset="0" style="stop-color:#FFFFFF"/>
		<stop  offset="1" style="stop-color:#FFFFFF;stop-opacity:0"/>
	</linearGradient>
	<path class="st4" d="M23.739,31.122c0.277,0.521,0.589,1.043,0.94,1.581c1.499,2.376,3.362,4.45,5.538,6.169
		c0.114,0.095,0.707,0.572,0.707,0.572c2.221,1.663,4.392,3.89,6.403,6.499C21.465,56.982,11.404,70.434,9.506,85.064
		c-1.999-1.199-3.73-2.688-5.128-4.41c-1.601-1.973-2.788-4.227-3.519-6.621c-1.462-4.788-1.098-10.135,1.439-14.906
		c0.229-0.43,0.485-0.847,0.753-1.259c1.225-1.942,2.74-3.605,4.467-4.956c0.169-0.146,0.347-0.285,0.52-0.428l0.016-0.012
		c4.46-3.34,8.821-8.582,12.25-15.031c1.243-2.338,2.28-4.689,3.118-7.001C23.53,30.667,23.621,30.899,23.739,31.122z"/>
	
		<linearGradient id="SVGID_5_" gradientUnits="userSpaceOnUse" x1="91.6995" y1="39.624" x2="42.7037" y2="82.3529" gradientTransform="matrix(1 0 0 -1 0 90.0035)">
		<stop  offset="0" style="stop-color:#FFFFFF"/>
		<stop  offset="1" style="stop-color:#FFFFFF;stop-opacity:0"/>
	</linearGradient>
	<path class="st5" d="M62.725,10.39c-2.537-4.771-6.766-8.063-11.553-9.528c-2.393-0.733-4.926-1.009-7.457-0.784
		c-2.53,0.224-5.059,0.948-7.443,2.216c-0.339,0.18-0.652,0.387-0.976,0.584c2.726,13.678,16,36.048,44.951,47.367
		c-3.516-3.26-6.866-7.633-9.614-12.801c-3.429-6.449-5.336-12.995-5.611-18.561l-0.001-0.019c-0.022-0.223-0.038-0.448-0.064-0.67
		c-0.154-2.187-0.686-4.372-1.611-6.474C63.157,11.266,62.954,10.82,62.725,10.39z"/>
	
		<linearGradient id="SVGID_6_" gradientUnits="userSpaceOnUse" x1="45.7314" y1="-11.7135" x2="92.7956" y2="79.4731" gradientTransform="matrix(1 0 0 -1 0 90.0035)">
		<stop  offset="0" style="stop-color:#FFFFFF"/>
		<stop  offset="1" style="stop-color:#FFFFFF;stop-opacity:0"/>
	</linearGradient>
	<path class="st6" d="M75.09,35.074c1.246,2.342,2.643,4.518,4.13,6.49c15.361-11.081,25.457-24.291,28.327-38.635
		c-0.351-0.216-0.694-0.44-1.062-0.636c-2.384-1.267-4.912-1.992-7.443-2.216s-5.063,0.052-7.457,0.784
		c-4.787,1.465-9.016,4.757-11.553,9.528c-0.229,0.43-0.431,0.876-0.623,1.328c-0.925,2.102-1.456,4.287-1.611,6.474
		c-0.026,0.222-0.042,0.447-0.064,0.67l-0.001,0.019c-0.215,4.344-1.437,9.287-3.589,14.314
		C74.447,33.823,74.758,34.45,75.09,35.074z"/>
</g>
</svg>
