<?xml version="1.0" encoding="utf-8"?>
<!-- Generator: Adobe Illustrator 25.1.0, SVG Export Plug-In . SVG Version: 6.00 Build 0)  -->
<svg version="1.1" id="Layer_1" xmlns="http://www.w3.org/2000/svg" xmlns:xlink="http://www.w3.org/1999/xlink" x="0px" y="0px"
	 viewBox="0 0 526.998 85.667" style="enable-background:new 0 0 526.998 85.667;" xml:space="preserve">
<style type="text/css">
	.st0{fill:#FFFFFF;}
</style>
<g>
	<path class="st0" d="M459.607,29.042c-15.608,0-26.213,11.506-26.213,26.313c0,15.007,10.705,26.313,26.813,26.313
		c7.764,0,14.081-2.71,18.579-7.104c1.993-1.946,1.562-5.264-0.861-6.639c-1.642-0.932-3.709-0.654-5.028,0.697
		c-2.785,2.852-7.046,4.842-12.489,4.842c-9.305,0-16.408-5.103-18.109-14.108h38.257c2.15,0,3.961-1.713,3.964-3.863
		c0-0.013,0-0.026,0-0.039C484.519,41.448,474.714,29.042,459.607,29.042z M442.298,51.754c1.401-8.705,7.904-14.507,17.309-14.507
		c7.504,0,14.608,4.602,16.108,14.507H442.298z M206.27,29.251c-5.95,0.225-11.158,3.134-14.643,7.502
		c-3.806-4.756-9.725-7.752-16.332-7.502c-5.24,0.198-9.901,2.483-13.321,6.005c-1.645-2.336-3.749-4.001-5.78-4.626
		c-2.344-0.723-4.83,0.593-5.552,2.938c-0.708,2.297,0.541,4.731,2.797,5.507c0.651,0.385,2.681,2.508,2.681,5.731v4.863
		c0,0.001,0,0.003,0,0.004v25.971c0,2.457,1.992,4.449,4.449,4.449s4.449-1.992,4.449-4.449V49.183
		c0-6.443,5.544-11.615,12.112-10.997c5.688,0.535,9.925,5.508,9.978,11.212c-0.001,0.092-0.013,0.183-0.013,0.275v25.971
		c0,0.062,0.016,0.12,0.018,0.181v0.096c0,2.457,1.992,4.449,4.449,4.449s4.449-1.992,4.449-4.449V49.183
		c0-0.059-0.009-0.115-0.009-0.173c0.1-6.361,5.594-11.436,12.103-10.824c5.724,0.538,9.983,5.571,9.983,11.32v26.415
		c0,2.457,1.992,4.449,4.449,4.449s4.449-1.992,4.449-4.449V49.183C226.985,37.929,217.617,28.822,206.27,29.251z M260.32,29.042
		c-15.608,0-26.214,11.506-26.214,26.313c0,15.007,10.706,26.313,26.814,26.313c7.763,0,14.081-2.71,18.578-7.104
		c1.993-1.946,1.562-5.264-0.861-6.639c-1.642-0.932-3.709-0.654-5.029,0.697c-2.785,2.852-7.046,4.842-12.489,4.842
		c-9.305,0-16.408-5.103-18.109-14.108h38.257c2.15,0,3.961-1.713,3.964-3.863c0-0.013,0-0.026,0-0.039
		C285.233,41.448,275.428,29.042,260.32,29.042z M243.011,51.754c1.401-8.705,7.904-14.507,17.309-14.507
		c7.504,0,14.607,4.602,16.108,14.507H243.011z M402.568,29.042c-8.504,0-14.907,3.802-18.909,9.905V14.685
		c0-2.404-1.948-4.352-4.352-4.352s-4.352,1.948-4.352,4.352v61.331c0,2.404,1.948,4.352,4.352,4.352s4.352-1.948,4.352-4.352
		v-4.252c4.002,6.103,10.405,9.904,18.909,9.904c13.907,0,25.313-11.505,25.313-26.313C427.88,40.548,416.475,29.042,402.568,29.042
		z M401.467,73.264c-10.105,0-17.809-7.704-17.809-17.909s7.704-17.909,17.809-17.909c10.005,0,17.709,7.704,17.709,17.909
		S411.472,73.264,401.467,73.264z M507.901,50.933c-4.921-1.427-8.871-3.036-8.917-7.015c-0.017-1.546,0.562-2.958,1.522-4.072
		c0.72-0.835,1.654-1.503,2.711-1.935c0.352-0.144,0.718-0.261,1.094-0.35c1.099-0.259,2.244-0.401,3.393-0.415
		c0.861-0.01,1.723,0.052,2.569,0.191c0.282,0.047,0.561,0.102,0.839,0.166c1.663,0.384,3.231,1.085,4.555,2.146
		c0.441,0.354,0.856,0.747,1.237,1.182c0.309,0.352,0.665,0.643,1.051,0.869c0.58,0.338,1.227,0.526,1.882,0.544
		c0.437,0.012,0.877-0.052,1.304-0.198c0.213-0.073,0.423-0.166,0.627-0.281l0.554-0.311c2.13-1.196,2.606-4.044,1.005-5.889
		c-3.597-4.143-9.029-6.525-15.438-6.525c-5.053,0-9.48,1.526-12.644,4.152s-5.065,6.353-5.065,10.755
		c0,6.791,3.939,10.177,8.864,12.322c0.821,0.357,1.669,0.68,2.531,0.979s1.737,0.573,2.613,0.832
		c7.004,2.076,14.007,3.227,14.007,8.579c0,1.532-0.449,2.771-1.229,3.75c-0.312,0.392-0.677,0.742-1.087,1.053
		s-0.865,0.582-1.358,0.817c-0.493,0.234-1.023,0.431-1.584,0.593c-1.401,0.405-2.99,0.591-4.647,0.591
		c-1.748,0-3.369-0.238-4.832-0.689c-1.462-0.45-2.766-1.112-3.881-1.958c-0.743-0.564-1.401-1.21-1.966-1.931
		c-0.655-0.836-1.567-1.368-2.545-1.558c-0.978-0.191-2.023-0.041-2.944,0.488c-0.286,0.164-0.545,0.355-0.776,0.567
		c-0.462,0.425-0.813,0.937-1.046,1.494c-0.116,0.278-0.203,0.568-0.258,0.863c-0.111,0.591-0.1,1.205,0.042,1.799
		c0.142,0.595,0.415,1.17,0.826,1.685c0.681,0.851,1.444,1.644,2.286,2.372c1.684,1.455,3.681,2.648,5.966,3.509
		c2.666,1.005,5.722,1.561,9.126,1.561c4.684,0,8.851-1.091,12.056-3.098c0.916-0.573,1.753-1.222,2.502-1.94
		c1.497-1.438,2.639-3.158,3.343-5.128c0.176-0.492,0.324-1.001,0.444-1.524c0.24-1.046,0.365-2.153,0.365-3.317
		C526.998,55.18,516.102,53.311,507.901,50.933z M345.269,29.251c-5.95,0.225-11.158,3.134-14.643,7.502
		c-3.806-4.756-9.725-7.752-16.332-7.502c-5.24,0.198-9.901,2.483-13.321,6.005c-1.645-2.336-3.749-4.001-5.78-4.626
		c-2.344-0.723-4.83,0.593-5.552,2.938c-0.708,2.297,0.541,4.731,2.797,5.507c0.651,0.385,2.681,2.508,2.681,5.731v4.863
		c0,0.001,0,0.003,0,0.004v25.971c0,2.457,1.992,4.449,4.449,4.449s4.449-1.992,4.449-4.449V49.183
		c0-6.443,5.544-11.615,12.112-10.997c5.688,0.535,9.925,5.508,9.978,11.212c-0.001,0.092-0.013,0.183-0.013,0.275v25.971
		c0,0.062,0.016,0.12,0.018,0.181v0.096c0,2.457,1.992,4.449,4.449,4.449s4.449-1.992,4.449-4.449V49.183
		c0-0.059-0.009-0.115-0.009-0.173c0.099-6.361,5.594-11.436,12.103-10.824c5.724,0.538,9.983,5.571,9.983,11.32v26.415
		c0,2.457,1.992,4.449,4.449,4.449s4.449-1.992,4.449-4.449V49.183C365.983,37.929,356.616,28.822,345.269,29.251z M30.146,38.451
		c0,0-0.578-0.465-0.689-0.557c-2.122-1.675-3.938-3.698-5.399-6.014c-0.342-0.524-0.646-1.033-0.916-1.541
		c-0.115-0.217-0.204-0.444-0.312-0.663c-0.817,2.255-1.828,4.546-3.04,6.825c-3.343,6.287-7.594,11.397-11.942,14.654l-0.015,0.011
		c-0.168,0.14-0.342,0.275-0.507,0.417c-1.683,1.317-3.16,2.938-4.354,4.831c-0.261,0.401-0.511,0.808-0.734,1.227
		c-2.473,4.651-2.828,9.864-1.403,14.531c0.713,2.334,1.87,4.531,3.431,6.454c1.561,1.923,3.524,3.572,5.848,4.807
		c2.324,1.236,4.789,1.942,7.256,2.16c2.467,0.218,4.936-0.051,7.27-0.765c4.667-1.428,8.79-4.637,11.263-9.288
		c0.223-0.419,0.42-0.854,0.607-1.295c0.902-2.049,1.42-4.18,1.57-6.311c0.026-0.216,0.041-0.436,0.062-0.653l0.001-0.019
		c0.209-4.227,1.396-9.035,3.486-13.926c-0.298-0.621-0.607-1.242-0.935-1.86C37.772,45.984,34.026,41.358,30.146,38.451z
		 M85.677,56.414c-1.195-1.894-2.671-3.514-4.354-4.831c-0.165-0.142-0.338-0.277-0.506-0.417l-0.015-0.011
		c-4.348-3.256-8.599-8.367-11.942-14.654s-5.202-12.669-5.47-18.095l-0.001-0.019c-0.022-0.217-0.037-0.437-0.062-0.653
		c-0.15-2.132-0.668-4.262-1.57-6.311c-0.187-0.441-0.384-0.876-0.607-1.295c-2.473-4.651-6.596-7.86-11.263-9.289
		c-2.333-0.714-4.802-0.983-7.27-0.765c-2.468,0.218-4.932,0.924-7.256,2.16c-2.324,1.236-4.287,2.884-5.848,4.807
		s-2.718,4.121-3.431,6.454c-1.426,4.668-1.071,9.88,1.403,14.531c0.223,0.419,0.473,0.826,0.734,1.227
		c1.195,1.894,2.671,3.514,4.354,4.831c0.165,0.142,0.338,0.277,0.506,0.417l0.015,0.011c4.348,3.256,8.599,8.367,11.942,14.654
		c3.343,6.287,5.202,12.669,5.47,18.095l0.001,0.019c0.022,0.217,0.037,0.437,0.062,0.653c0.15,2.132,0.668,4.262,1.57,6.311
		c0.186,0.441,0.384,0.876,0.607,1.295c2.473,4.651,6.596,7.86,11.263,9.288c2.333,0.714,4.803,0.983,7.27,0.765
		c2.467-0.219,4.932-0.924,7.256-2.16c2.324-1.236,4.287-2.884,5.848-4.807s2.718-4.121,3.431-6.454
		c1.425-4.668,1.07-9.88-1.403-14.531C86.188,57.222,85.938,56.815,85.677,56.414z M136.197,56.414
		c-1.195-1.894-2.671-3.514-4.354-4.831c-0.165-0.142-0.338-0.277-0.506-0.417l-0.015-0.011c-4.348-3.256-8.599-8.367-11.942-14.654
		c-1.212-2.28-2.223-4.571-3.04-6.825c-0.108,0.219-0.196,0.445-0.311,0.661c-0.272,0.51-0.575,1.02-0.957,1.605
		c-1.422,2.255-3.238,4.277-5.359,5.952c-0.11,0.093-0.626,0.51-0.626,0.51c-3.943,2.954-7.689,7.58-10.61,13.073
		c-0.328,0.618-0.637,1.238-0.935,1.86c2.089,4.891,3.277,9.699,3.486,13.926l0.001,0.019c0.022,0.217,0.037,0.437,0.062,0.653
		c0.15,2.132,0.668,4.262,1.57,6.311c0.186,0.441,0.384,0.876,0.607,1.295c2.473,4.651,6.596,7.86,11.263,9.288
		c2.333,0.714,4.802,0.983,7.27,0.765c2.467-0.219,4.932-0.924,7.256-2.16c2.324-1.236,4.287-2.884,5.848-4.807
		s2.718-4.121,3.431-6.454c1.425-4.668,1.07-9.88-1.403-14.531C136.708,57.222,136.459,56.815,136.197,56.414z M106.075,34.514
		l0.015-0.011c0.168-0.14,0.341-0.275,0.506-0.417c1.683-1.317,3.16-2.937,4.354-4.831c0.261-0.401,0.511-0.808,0.734-1.227
		c2.473-4.651,2.828-9.864,1.402-14.531c-0.713-2.334-1.87-4.531-3.431-6.454s-3.524-3.572-5.848-4.807
		c-2.324-1.236-4.789-1.942-7.255-2.16c-2.467-0.218-4.936,0.051-7.27,0.765c-4.667,1.428-8.79,4.637-11.263,9.289
		c-0.223,0.419-0.421,0.854-0.607,1.295c-0.902,2.049-1.42,4.18-1.57,6.311c-0.026,0.216-0.041,0.436-0.062,0.653l-0.001,0.019
		c-0.21,4.235-1.401,9.054-3.498,13.954c0.294,0.612,0.597,1.223,0.921,1.831c2.921,5.493,6.667,10.119,10.547,13.026
		c0,0,0.581,0.467,0.686,0.556c2.123,1.675,3.939,3.699,5.402,6.016c0.345,0.529,0.648,1.037,0.916,1.541
		c0.121,0.228,0.214,0.465,0.328,0.696c0.819-2.265,1.834-4.567,3.052-6.858C97.475,42.881,101.727,37.771,106.075,34.514z"/>
</g>
</svg>
