<?xml version="1.0" encoding="utf-8"?>
<!-- Generator: Adobe Illustrator 25.1.0, SVG Export Plug-In . SVG Version: 6.00 Build 0)  -->
<svg version="1.1" id="Layer_1" xmlns="http://www.w3.org/2000/svg" xmlns:xlink="http://www.w3.org/1999/xlink" x="0px" y="0px"
	 viewBox="0 0 526.998 85.668" style="enable-background:new 0 0 526.998 85.668;" xml:space="preserve">
<style type="text/css">
	.st0{fill:#253746;}
	.st1{fill:#335EEA;}
	.st2{fill:url(#SVGID_1_);}
	.st3{fill:url(#SVGID_2_);}
	.st4{fill:url(#SVGID_3_);}
	.st5{fill:url(#SVGID_4_);}
	.st6{opacity:0.4;fill:url(#SVGID_5_);enable-background:new    ;}
	.st7{fill:url(#SVGID_6_);}
</style>
<g>
	<g>
		<path class="st0" d="M261.121,74.65c5.443,0,9.703-1.99,12.489-4.842c1.319-1.351,3.386-1.629,5.029-0.697l0,0
			c2.423,1.375,2.854,4.692,0.861,6.639c-4.498,4.393-10.815,7.104-18.578,7.104c-16.108,0-26.814-11.306-26.814-26.313
			c0-14.807,10.606-26.313,26.213-26.313c15.107,0,24.913,12.406,24.913,26.413c0,0.013,0,0.026,0,0.039
			c-0.003,2.15-1.814,3.863-3.964,3.863h-38.259C244.712,69.547,251.816,74.65,261.121,74.65z M243.011,52.939h33.417
			c-1.501-9.905-8.605-14.507-16.108-14.507C250.915,38.432,244.412,44.234,243.011,52.939z"/>
		<path class="st0" d="M427.88,56.54c0,14.808-11.405,26.313-25.313,26.313c-8.504,0-14.907-3.802-18.909-9.904v4.252
			c0,2.404-1.949,4.352-4.352,4.352l0,0c-2.404,0-4.352-1.949-4.352-4.352V15.87c0-2.404,1.949-4.352,4.352-4.352l0,0
			c2.404,0,4.352,1.949,4.352,4.352v24.263c4.002-6.103,10.405-9.905,18.909-9.905C416.475,30.227,427.88,41.734,427.88,56.54z
			 M419.176,56.54c0-10.205-7.704-17.909-17.709-17.909c-10.105,0-17.809,7.704-17.809,17.909s7.703,17.909,17.809,17.909
			C411.472,74.45,419.176,66.745,419.176,56.54z"/>
		<path class="st0" d="M460.407,74.65c5.443,0,9.703-1.99,12.489-4.842c1.319-1.351,3.386-1.629,5.029-0.697l0,0
			c2.423,1.375,2.854,4.692,0.861,6.639c-4.498,4.393-10.815,7.104-18.579,7.104c-16.108,0-26.813-11.306-26.813-26.313
			c0-14.807,10.605-26.313,26.213-26.313c15.107,0,24.913,12.406,24.913,26.413c0,0.013,0,0.026,0,0.039
			c-0.003,2.15-1.814,3.863-3.964,3.863h-38.257C443.999,69.547,451.102,74.65,460.407,74.65z M442.298,52.939h33.417
			c-1.501-9.905-8.605-14.507-16.108-14.507C450.202,38.432,443.699,44.234,442.298,52.939z"/>
		<path class="st0" d="M526.998,67.846c0,9.305-8.004,15.007-18.71,15.007c-7.781,0-13.746-2.905-17.379-7.443
			c-1.646-2.056-1.074-5.098,1.211-6.408l0,0c1.843-1.056,4.179-0.601,5.489,1.071c2.259,2.881,6.017,4.577,10.678,4.577
			c5.303,0,9.905-1.901,9.905-6.804c0-10.705-28.014-4.602-28.014-22.711c0-8.804,7.604-14.908,17.709-14.908
			c6.409,0,11.842,2.382,15.438,6.525c1.601,1.845,1.124,4.693-1.005,5.889l-0.554,0.311c-1.632,0.917-3.63,0.474-4.865-0.934
			c-3.052-3.481-8.197-4.305-12.592-3.27c-3.01,0.709-5.362,3.264-5.327,6.356C499.105,55.713,526.998,49.477,526.998,67.846z"/>
		<path class="st0" d="M206.27,30.437c-5.95,0.225-11.158,3.134-14.643,7.502c-3.806-4.756-9.725-7.752-16.332-7.502
			c-5.24,0.198-9.901,2.483-13.321,6.005c-1.645-2.336-3.748-4.001-5.78-4.626c-2.344-0.723-4.83,0.593-5.552,2.937
			c-0.708,2.298,0.541,4.731,2.797,5.507c0.651,0.385,2.681,2.508,2.681,5.731v4.863c0,0.001,0,0.003,0,0.004v25.971
			c0,2.457,1.992,4.449,4.449,4.449s4.449-1.992,4.449-4.449V50.368c0-6.443,5.544-11.615,12.112-10.997
			c5.688,0.535,9.925,5.508,9.978,11.212c-0.001,0.092-0.013,0.183-0.013,0.275v25.971c0,0.062,0.016,0.12,0.018,0.181v0.096
			c0,2.457,1.992,4.449,4.449,4.449s4.449-1.992,4.449-4.449V50.368c0-0.059-0.009-0.115-0.009-0.173
			c0.1-6.361,5.594-11.436,12.103-10.824c5.724,0.538,9.983,5.571,9.983,11.32v26.415c0,2.457,1.992,4.449,4.449,4.449
			s4.449-1.992,4.449-4.449V50.368C226.985,39.114,217.617,30.007,206.27,30.437z"/>
		<path class="st0" d="M345.269,30.437c-5.95,0.225-11.158,3.134-14.643,7.502c-3.806-4.756-9.725-7.752-16.332-7.502
			c-5.24,0.198-9.901,2.483-13.321,6.005c-1.645-2.336-3.749-4.001-5.78-4.626c-2.344-0.723-4.83,0.593-5.552,2.937
			c-0.708,2.298,0.541,4.731,2.797,5.507c0.651,0.385,2.681,2.508,2.681,5.731v4.863c0,0.001,0,0.003,0,0.004v25.971
			c0,2.457,1.992,4.449,4.449,4.449c2.457,0,4.449-1.992,4.449-4.449V50.368c0-6.443,5.544-11.615,12.112-10.997
			c5.688,0.535,9.925,5.508,9.978,11.212c-0.001,0.092-0.013,0.183-0.013,0.275v25.971c0,0.062,0.016,0.12,0.018,0.181v0.096
			c0,2.457,1.992,4.449,4.449,4.449s4.449-1.992,4.449-4.449V50.368c0-0.059-0.009-0.115-0.009-0.173
			c0.1-6.361,5.594-11.436,12.103-10.824c5.724,0.538,9.983,5.571,9.983,11.32v26.415c0,2.457,1.992,4.449,4.449,4.449
			s4.449-1.992,4.449-4.449V50.368C365.983,39.114,356.616,30.007,345.269,30.437z"/>
	</g>
	<path class="st0" d="M526.998,67.846c0,9.305-8.004,15.007-18.71,15.007c-7.781,0-13.746-2.905-17.379-7.443
		c-1.646-2.056-1.074-5.098,1.211-6.408l0,0c1.843-1.056,4.179-0.601,5.489,1.071c2.259,2.881,6.017,4.577,10.678,4.577
		c5.303,0,9.905-1.901,9.905-6.804c0-10.705-28.014-4.602-28.014-22.711c0-8.804,7.604-14.908,17.709-14.908
		c6.409,0,11.842,2.382,15.438,6.525c1.601,1.845,1.124,4.693-1.005,5.889l-0.554,0.311c-1.632,0.917-3.63,0.474-4.865-0.934
		c-3.052-3.481-8.197-4.305-12.592-3.27c-3.01,0.709-5.362,3.264-5.327,6.356C499.105,55.713,526.998,49.477,526.998,67.846z"/>
	<path class="st1" d="M30.146,38.451c0,0-0.578-0.465-0.689-0.557c-2.122-1.675-3.938-3.698-5.399-6.014
		c-0.342-0.524-0.646-1.033-0.916-1.541c-0.116-0.217-0.204-0.444-0.312-0.663c-0.817,2.255-1.828,4.546-3.04,6.825
		c-3.343,6.287-7.594,11.397-11.942,14.654l-0.015,0.011c-0.168,0.14-0.341,0.275-0.507,0.417c-1.683,1.317-3.16,2.938-4.354,4.831
		c-0.261,0.401-0.511,0.808-0.734,1.227c-2.473,4.651-2.828,9.864-1.403,14.531c0.713,2.334,1.87,4.531,3.431,6.454
		c1.561,1.923,3.524,3.572,5.848,4.807c2.324,1.236,4.789,1.942,7.256,2.16c2.467,0.218,4.936-0.051,7.27-0.765
		c4.667-1.428,8.79-4.637,11.263-9.288c0.223-0.419,0.421-0.854,0.607-1.295c0.902-2.049,1.42-4.18,1.57-6.311
		c0.026-0.216,0.041-0.436,0.062-0.653l0.001-0.019c0.209-4.227,1.396-9.035,3.486-13.926c-0.298-0.621-0.607-1.242-0.935-1.86
		C37.772,45.984,34.026,41.358,30.146,38.451z"/>
	
		<linearGradient id="SVGID_1_" gradientUnits="userSpaceOnUse" x1="55.406" y1="51.5699" x2="103.1951" y2="61.5723" gradientTransform="matrix(1 0 0 -1 0 87.2427)">
		<stop  offset="0" style="stop-color:#335EEA"/>
		<stop  offset="1" style="stop-color:#2949C0"/>
	</linearGradient>
	<path class="st2" d="M106.075,34.514l0.015-0.011c0.168-0.14,0.342-0.275,0.506-0.417c1.683-1.317,3.16-2.937,4.354-4.831
		c0.261-0.401,0.511-0.808,0.734-1.227c2.473-4.651,2.828-9.864,1.402-14.531c-0.713-2.334-1.87-4.531-3.431-6.454
		s-3.524-3.572-5.848-4.807c-2.324-1.236-4.789-1.942-7.256-2.16s-4.936,0.051-7.27,0.765c-4.667,1.428-8.79,4.637-11.263,9.289
		c-0.223,0.419-0.421,0.854-0.607,1.295c-0.902,2.049-1.42,4.18-1.57,6.311c-0.026,0.216-0.041,0.436-0.062,0.653l-0.001,0.019
		c-0.21,4.235-1.401,9.054-3.498,13.954c0.294,0.612,0.597,1.223,0.921,1.831c2.921,5.493,6.667,10.119,10.547,13.026
		c0,0,0.581,0.467,0.686,0.556c2.123,1.675,3.939,3.699,5.402,6.016c0.345,0.529,0.648,1.037,0.916,1.541
		c0.121,0.228,0.214,0.465,0.328,0.696c0.819-2.265,1.834-4.567,3.052-6.858C97.475,42.881,101.727,37.771,106.075,34.514z"/>
	<path class="st1" d="M85.677,56.414c-1.195-1.894-2.671-3.514-4.354-4.831c-0.165-0.142-0.338-0.277-0.506-0.417l-0.015-0.011
		c-4.348-3.256-8.599-8.367-11.942-14.654c-3.343-6.287-5.202-12.669-5.47-18.095l-0.001-0.019
		c-0.022-0.217-0.037-0.437-0.062-0.653c-0.15-2.132-0.668-4.262-1.57-6.311c-0.186-0.441-0.384-0.876-0.607-1.295
		c-2.473-4.651-6.596-7.86-11.263-9.289c-2.333-0.714-4.802-0.983-7.27-0.765c-2.467,0.218-4.932,0.924-7.256,2.16
		c-2.324,1.236-4.287,2.884-5.848,4.807s-2.718,4.121-3.431,6.454c-1.425,4.668-1.071,9.88,1.403,14.531
		c0.223,0.419,0.473,0.826,0.734,1.227c1.195,1.894,2.671,3.514,4.354,4.831c0.165,0.142,0.338,0.277,0.506,0.417l0.015,0.011
		c4.348,3.256,8.599,8.367,11.942,14.654c3.343,6.287,5.202,12.669,5.47,18.095l0.001,0.019c0.022,0.217,0.037,0.437,0.062,0.653
		c0.15,2.132,0.668,4.262,1.57,6.311c0.186,0.441,0.384,0.876,0.607,1.295c2.473,4.651,6.596,7.86,11.263,9.288
		c2.333,0.714,4.803,0.983,7.27,0.765c2.467-0.218,4.932-0.924,7.256-2.16c2.324-1.236,4.287-2.884,5.848-4.807
		s2.718-4.121,3.431-6.454c1.425-4.668,1.071-9.88-1.402-14.531C86.188,57.222,85.938,56.815,85.677,56.414z"/>
	
		<linearGradient id="SVGID_2_" gradientUnits="userSpaceOnUse" x1="104.7864" y1="46.7337" x2="127.2918" y2="8.3912" gradientTransform="matrix(1 0 0 -1 0 87.2427)">
		<stop  offset="0" style="stop-color:#2949C0"/>
		<stop  offset="1" style="stop-color:#1F3497"/>
	</linearGradient>
	<path class="st3" d="M98.476,51.477c-0.328,0.618-0.637,1.238-0.935,1.86c2.089,4.891,3.277,9.699,3.486,13.926l0.001,0.019
		c0.022,0.217,0.037,0.437,0.062,0.653c0.15,2.132,0.668,4.262,1.57,6.311c0.186,0.441,0.384,0.876,0.607,1.295
		c2.473,4.651,6.596,7.86,11.263,9.288c2.333,0.714,4.802,0.983,7.27,0.765c2.467-0.218,4.932-0.924,7.256-2.16
		c2.324-1.236,4.287-2.884,5.848-4.807s2.718-4.121,3.431-6.454c1.425-4.668,1.071-9.88-1.403-14.531
		c-0.223-0.419-0.473-0.826-0.734-1.227c-1.195-1.894-2.671-3.514-4.354-4.831c-0.165-0.142-0.338-0.277-0.507-0.417l-0.015-0.011
		c-4.348-3.256-8.599-8.367-11.942-14.654c-1.212-2.28-2.223-4.571-3.04-6.825c-0.109,0.22-0.197,0.446-0.312,0.663
		c-0.271,0.508-0.574,1.017-0.916,1.541c-1.461,2.316-3.277,4.339-5.399,6.014c-0.111,0.093-0.689,0.557-0.689,0.557
		C105.143,41.358,101.397,45.984,98.476,51.477z"/>
	
		<linearGradient id="SVGID_3_" gradientUnits="userSpaceOnUse" x1="111.5633" y1="91.4069" x2="123.4921" y2="16.4942" gradientTransform="matrix(1 0 0 -1 0 87.2427)">
		<stop  offset="0" style="stop-color:#FFFFFF"/>
		<stop  offset="1" style="stop-color:#FFFFFF;stop-opacity:0"/>
	</linearGradient>
	<path class="st4" d="M116.027,30.339c-0.271,0.508-0.574,1.017-0.916,1.541c-1.461,2.316-3.277,4.339-5.399,6.014
		c-0.111,0.093-0.689,0.557-0.689,0.557c-2.165,1.622-4.281,3.793-6.243,6.336c15.464,10.763,25.272,23.876,27.123,38.139
		c1.949-1.169,3.636-2.62,4.999-4.299c1.561-1.923,2.718-4.121,3.431-6.454c1.425-4.668,1.07-9.88-1.403-14.531
		c-0.223-0.419-0.473-0.826-0.734-1.227c-1.195-1.894-2.671-3.514-4.354-4.831c-0.165-0.142-0.338-0.277-0.507-0.417l-0.015-0.011
		c-4.348-3.256-8.599-8.367-11.942-14.654c-1.212-2.28-2.223-4.571-3.04-6.825C116.231,29.896,116.143,30.122,116.027,30.339z"/>
	
		<linearGradient id="SVGID_4_" gradientUnits="userSpaceOnUse" x1="5160.5903" y1="91.4068" x2="5172.519" y2="16.4942" gradientTransform="matrix(-1 0 0 -1 5188.1958 87.2427)">
		<stop  offset="0" style="stop-color:#FFFFFF"/>
		<stop  offset="1" style="stop-color:#FFFFFF;stop-opacity:0"/>
	</linearGradient>
	<path class="st5" d="M23.142,30.339c0.271,0.508,0.574,1.017,0.916,1.541c1.461,2.316,3.277,4.339,5.399,6.014
		c0.111,0.093,0.689,0.557,0.689,0.557c2.165,1.622,4.281,3.793,6.243,6.336C20.925,55.55,11.117,68.663,9.266,82.926
		c-1.949-1.169-3.636-2.62-4.999-4.299c-1.561-1.923-2.718-4.121-3.431-6.454c-1.425-4.668-1.07-9.88,1.403-14.531
		c0.223-0.419,0.473-0.826,0.734-1.227c1.195-1.894,2.671-3.514,4.354-4.831c0.165-0.142,0.338-0.277,0.507-0.417l0.015-0.011
		c4.348-3.256,8.599-8.367,11.942-14.654c1.212-2.28,2.223-4.571,3.04-6.825C22.938,29.896,23.026,30.122,23.142,30.339z"/>
	
		<linearGradient id="SVGID_5_" gradientUnits="userSpaceOnUse" x1="89.3954" y1="38.13" x2="41.6304" y2="79.7856" gradientTransform="matrix(1 0 0 -1 0 87.2427)">
		<stop  offset="0" style="stop-color:#FFFFFF"/>
		<stop  offset="1" style="stop-color:#FFFFFF;stop-opacity:0"/>
	</linearGradient>
	<path class="st6" d="M61.148,10.128c-2.473-4.651-6.596-7.86-11.263-9.289c-2.333-0.714-4.802-0.983-7.269-0.765
		c-2.467,0.218-4.932,0.924-7.256,2.16c-0.33,0.175-0.636,0.377-0.951,0.569c2.657,13.335,15.598,35.143,43.822,46.177
		c-3.428-3.178-6.693-7.442-9.372-12.48c-3.343-6.287-5.202-12.669-5.471-18.095l-0.001-0.019c-0.022-0.217-0.037-0.437-0.062-0.653
		c-0.15-2.132-0.668-4.262-1.57-6.311C61.569,10.982,61.371,10.548,61.148,10.128z"/>
	
		<linearGradient id="SVGID_6_" gradientUnits="userSpaceOnUse" x1="44.5807" y1="-11.9186" x2="90.4627" y2="76.9777" gradientTransform="matrix(1 0 0 -1 0 87.2427)">
		<stop  offset="0" style="stop-color:#FFFFFF"/>
		<stop  offset="1" style="stop-color:#FFFFFF;stop-opacity:0"/>
	</linearGradient>
	<path class="st7" d="M73.202,34.192c1.214,2.284,2.576,4.405,4.026,6.327c14.975-10.803,24.817-23.68,27.615-37.665
		c-0.342-0.21-0.676-0.429-1.036-0.62c-2.324-1.236-4.789-1.942-7.256-2.16c-2.467-0.219-4.936,0.051-7.269,0.765
		c-4.667,1.428-8.79,4.637-11.263,9.289c-0.223,0.419-0.421,0.854-0.607,1.295c-0.902,2.049-1.42,4.18-1.57,6.311
		c-0.026,0.216-0.041,0.436-0.062,0.653l-0.001,0.019c-0.21,4.235-1.401,9.054-3.498,13.954
		C72.576,32.973,72.879,33.584,73.202,34.192z"/>
</g>
</svg>
